<svg xmlns="http://www.w3.org/2000/svg" viewBox="0 0 1194.387 549.841"><defs><style>.cls-1{fill:#e52528;}</style></defs><g id="Layer_2" data-name="Layer 2"><g id="Livello_1" data-name="Livello 1"><path class="cls-1" d="M1177.5,0h-896a16.884,16.884,0,0,0-16.885,16.886v37.9c-62.048,4.722-129.143,34.629-170.526,76.53H65.472c-17.242,0-27.677,7.1-33.811,23.02a16.882,16.882,0,0,0,9.973,21.951L20.66,276.56l-5.414.593a16.965,16.965,0,0,0-1.9.3c-.037.008-.071.02-.108.028-.511.113-1.015.244-1.507.4-.1.033-.2.076-.3.11-.419.144-.836.294-1.24.469-.149.065-.29.142-.437.211-.348.162-.7.325-1.029.51-.166.091-.321.2-.483.293-.306.183-.612.364-.9.566-.155.106-.3.224-.448.335-.289.213-.578.424-.852.654-.126.107-.243.223-.366.333-.284.253-.567.508-.834.779-.091.094-.173.194-.262.289-.284.3-.564.611-.826.935-.057.071-.108.147-.164.219-.279.357-.549.722-.8,1.1-.033.051-.061.1-.093.155-.262.406-.51.82-.737,1.248-.021.041-.038.085-.06.126-.227.439-.44.887-.629,1.348-.021.052-.037.106-.057.157-.18.452-.346.91-.487,1.379-.027.087-.044.177-.069.265-.123.437-.238.878-.327,1.329-.027.138-.04.279-.064.418-.069.408-.137.816-.176,1.233-.016.166-.015.335-.026.5-.024.369-.056.737-.056,1.113V420.415A16.884,16.884,0,0,0,16.886,437.3H89.692a16.886,16.886,0,1,0,0-33.771H33.771V309.087L150.8,296.252a16.874,16.874,0,0,0,15.039-16.78v-66.2a16.886,16.886,0,1,0-33.771,0V264.34l-76.093,8.346,22.494-107.6H264.618V420.335A16.884,16.884,0,0,0,281.5,437.221h71.068c.517.048,1.038.079,1.567.079h322.68a73.086,73.086,0,0,0-7.157,14.657H258.768a73.218,73.218,0,0,0-137.893,0H16.886a16.886,16.886,0,1,0,0,33.771h100.2c.2,1.707.458,3.414.78,5.118a73,73,0,0,0,57.7,57.689,75.07,75.07,0,0,0,13.983,1.306,73.038,73.038,0,0,0,72.789-64.113H665.876c.2,1.707.458,3.414.78,5.118a73,73,0,0,0,57.7,57.689,75.062,75.062,0,0,0,13.983,1.306,73.038,73.038,0,0,0,72.789-64.113h20.727c.2,1.707.458,3.414.78,5.118a73,73,0,0,0,57.7,57.689,75.07,75.07,0,0,0,13.983,1.306A73.22,73.22,0,0,0,976.39,462.5v-.013a71.774,71.774,0,0,0-10.075-25.263h31.4c.087,0,.173.013.261.013l103.1-.013v18.231a16.886,16.886,0,0,0,33.772,0V437.221H1177.5a16.885,16.885,0,0,0,16.886-16.886V16.886A16.885,16.885,0,0,0,1177.5,0ZM146.95,131.313C180.828,108.3,224.267,92.267,264.618,88.65v42.663ZM835.642,451.957H807.554a72.336,72.336,0,0,0-7.168-14.657H842.8A73.194,73.194,0,0,0,835.642,451.957ZM217.628,504.566a39.444,39.444,0,1,1-27.888-67.332,42.49,42.49,0,0,1,7.889.752,39.437,39.437,0,0,1,20,66.58Zm548.786,0A39.444,39.444,0,1,1,736.305,437.3h4.441a43.113,43.113,0,0,1,5.669.686,39.437,39.437,0,0,1,20,66.58Zm165.981,0A39.444,39.444,0,1,1,902.287,437.3h2.233c.3,0,.587-.029.881-.044a42.7,42.7,0,0,1,7,.73,39.437,39.437,0,0,1,20,66.58ZM1160.616,403.45H298.389V33.771h862.227Z"/></g></g></svg>