<svg xmlns="http://www.w3.org/2000/svg" viewBox="0 0 2799.045 549.841"><defs><style>.cls-1{fill:#e30613;}</style></defs><g id="Layer_2" data-name="Layer 2"><g id="Livello_1" data-name="Livello 1"><path class="cls-1" d="M2782.159,0H1120a16.884,16.884,0,0,0-16.886,16.885v403.45c0,.014,0,.027,0,.04s0,.026,0,.039A16.885,16.885,0,0,0,1120,437.3h11.046a73.17,73.17,0,0,0-7.149,14.658H810.545a72.352,72.352,0,0,0-7.2-14.736h241.629a16.885,16.885,0,0,0,16.886-16.886V16.885A16.884,16.884,0,0,0,1044.969,0H394.664a16.884,16.884,0,0,0-16.886,16.885v403.45c0,.014,0,.027,0,.04s0,.026,0,.039A16.885,16.885,0,0,0,394.664,437.3l119.169,0a73.246,73.246,0,0,0-7.147,14.635l-234.422.025a72.369,72.369,0,0,0-7.213-14.728l62.07.006a16.89,16.89,0,0,0,16.886-16.886V57.411a16.884,16.884,0,0,0-16.886-16.885c-66.419,0-142.229,31.465-187.422,77.2H51.963c-17.268,0-27.69,7.11-33.824,23.046a16.895,16.895,0,0,0,11.939,22.506L19.169,276.71l-3.814.347c-.042,0-.082.014-.124.018-.238.023-.469.067-.7.1-.328.046-.659.086-.981.15-.223.045-.44.109-.66.163-.328.08-.658.153-.977.251-.172.053-.336.122-.5.18-.359.123-.719.245-1.067.39-.107.046-.21.1-.316.15-.4.177-.792.359-1.172.565-.058.031-.113.07-.171.1-.419.234-.831.478-1.226.745-.038.026-.073.056-.111.081-.408.281-.807.575-1.187.889-.053.043-.1.093-.153.137-.358.3-.709.615-1.041.946-.09.091-.171.191-.26.283-.282.3-.563.592-.824.907-.123.149-.231.31-.35.463-.21.273-.424.542-.618.827-.128.189-.238.389-.359.583-.165.266-.337.528-.488.8-.1.191-.19.392-.287.587-.147.3-.3.586-.429.889-.07.164-.123.336-.188.5-.135.348-.273.695-.385,1.053-.04.125-.065.255-.1.38-.118.411-.232.823-.32,1.245-.018.089-.027.181-.043.271-.089.463-.166.93-.215,1.405-.008.086-.008.175-.016.261-.041.477-.072.957-.073,1.444,0,.016,0,.032,0,.048V420.335a16.884,16.884,0,0,0,16.885,16.886H89.679a16.886,16.886,0,0,0,0-33.772H33.771V309.3l143.713-13.087a16.892,16.892,0,0,0,15.356-16.82V199.7a16.886,16.886,0,0,0-33.772,0v64.271L53.4,273.593,65.142,151.5H310.235V403.463l-106.986-.014c-.543,0-1.078.032-1.607.082a72.946,72.946,0,0,0-67.267,48.426H16.885a16.886,16.886,0,0,0,0,33.771H130.6c.2,1.7.459,3.4.781,5.105a72.935,72.935,0,0,0,57.689,57.7,75.072,75.072,0,0,0,13.984,1.306,73.053,73.053,0,0,0,72.8-64.114l227.044-.024c.2,1.711.458,3.422.781,5.13a73,73,0,0,0,57.715,57.688,75.912,75.912,0,0,0,13.957,1.307,73.063,73.063,0,0,0,72.8-64.126h20.726c.2,1.711.459,3.422.781,5.131a73,73,0,0,0,57.716,57.688,75.893,75.893,0,0,0,13.956,1.307,73.044,73.044,0,0,0,72.8-64.1h305.987c.2,1.707.444,3.414.766,5.118a73,73,0,0,0,57.7,57.689,75.07,75.07,0,0,0,13.983,1.306,73.038,73.038,0,0,0,72.789-64.113H1286.1c.2,1.7.459,3.4.781,5.105a72.934,72.934,0,0,0,57.689,57.7,75.07,75.07,0,0,0,13.983,1.306,73.036,73.036,0,0,0,72.789-64.113h20.74c.2,1.707.459,3.414.781,5.118a72.984,72.984,0,0,0,57.688,57.689,75.072,75.072,0,0,0,13.984,1.306,73.028,73.028,0,0,0,72.8-64.113h442.031c.2,1.707.444,3.414.767,5.118a73,73,0,0,0,57.7,57.689,75.08,75.08,0,0,0,13.984,1.306,73.041,73.041,0,0,0,72.789-64.113h20.738c.2,1.7.459,3.4.782,5.105a72.932,72.932,0,0,0,57.689,57.7,75.062,75.062,0,0,0,13.983,1.306,73.038,73.038,0,0,0,72.789-64.113h20.74c.2,1.707.458,3.414.781,5.118a72.983,72.983,0,0,0,57.688,57.689,75.07,75.07,0,0,0,13.983,1.306,73.206,73.206,0,0,0,72.068-87.357,71.825,71.825,0,0,0-10.072-25.263h39.809c.088,0,.173.013.261.013l159.887-.013v18.231a16.886,16.886,0,0,0,33.772,0V437.221h42.662a16.885,16.885,0,0,0,16.886-16.886V16.885A16.884,16.884,0,0,0,2782.159,0ZM192.57,117.725c33.887-23.01,77.327-39.04,117.665-42.656v42.656Zm38.566,386.828a39.44,39.44,0,1,1-27.887-67.319,42.48,42.48,0,0,1,7.888.752,39.442,39.442,0,0,1,20,66.567Zm1819.2-67.332a73.159,73.159,0,0,0-7.2,14.736H1593.731a72.318,72.318,0,0,0-7.182-14.7ZM603.443,504.54a39.444,39.444,0,1,1-55.776-55.789,38.955,38.955,0,0,1,25.543-11.457h4.642a43,43,0,0,1,5.579.679,39.4,39.4,0,0,1,30.79,30.79v.013A39.425,39.425,0,0,1,603.443,504.54Zm69.225-52.61h-28.11a72.3,72.3,0,0,0-7.154-14.639h42.414A73.217,73.217,0,0,0,672.668,451.93ZM411.549,403.449V33.771h616.534V403.449ZM769.424,504.54a39.444,39.444,0,1,1-55.776-55.789,39.009,39.009,0,0,1,27.862-11.53,42.515,42.515,0,0,1,7.9.752,39.437,39.437,0,0,1,20.012,66.567Zm451.216.026a39.444,39.444,0,1,1-30.027-67.272h4.272a43.1,43.1,0,0,1,5.756.692,39.437,39.437,0,0,1,20,66.58Zm41.14-52.609a72.256,72.256,0,0,0-7.179-14.668l42.448,0a73.182,73.182,0,0,0-7.171,14.672Zm124.841,52.609a39.435,39.435,0,1,1-29.8-67.286h3.8a42.976,42.976,0,0,1,5.994.706,39.437,39.437,0,0,1,20,66.58Zm41.14-52.609a72.22,72.22,0,0,0-7.188-14.682l42.466,0a73.185,73.185,0,0,0-7.177,14.686Zm124.855,52.6a39.44,39.44,0,1,1-29.207-67.287h2.626a42.736,42.736,0,0,1,6.581.72,39.443,39.443,0,0,1,20,66.567Zm587.266.013A39.444,39.444,0,1,1,2112,437.234a42.48,42.48,0,0,1,7.888.752,39.436,39.436,0,0,1,20,66.58Zm69.239-52.609h-28.1a72.278,72.278,0,0,0-7.22-14.736h42.528A73.18,73.18,0,0,0,2209.121,451.957Zm96.743,52.609a39.435,39.435,0,1,1-27.888-67.332,42.49,42.49,0,0,1,7.889.752,39.438,39.438,0,0,1,20,66.58Zm69.241-52.609H2347a72.278,72.278,0,0,0-7.22-14.736h42.528A73.093,73.093,0,0,0,2375.105,451.957Zm96.753,52.6a39.439,39.439,0,1,1-27.888-67.319,42.482,42.482,0,0,1,7.889.752,39.442,39.442,0,0,1,20,66.567Zm293.415-101.1H1136.884V33.771H2765.273Z"/></g></g></svg>