<svg xmlns="http://www.w3.org/2000/svg" viewBox="0 0 2073.71 549.841"><defs><style>.cls-1{fill:#e52528;}</style></defs><g id="Layer_2" data-name="Layer 2"><g id="Livello_1" data-name="Livello 1"><path class="cls-1" d="M2056.825,0H394.664a16.885,16.885,0,0,0-16.886,16.886V420.335c0,.014,0,.027,0,.04s0,.026,0,.04A16.884,16.884,0,0,0,394.664,437.3l89.167,0a73.246,73.246,0,0,0-7.147,14.635l-204.42.025a72.317,72.317,0,0,0-7.213-14.728l62.07.006a16.89,16.89,0,0,0,16.886-16.885V57.411a16.885,16.885,0,0,0-16.886-16.886c-66.419,0-142.229,31.466-187.422,77.2H51.963c-17.268,0-27.69,7.11-33.824,23.046a16.895,16.895,0,0,0,11.939,22.506L19.169,276.71l-3.814.348c-.042,0-.081.013-.124.017-.238.023-.469.067-.7.1-.328.046-.659.086-.98.15-.224.045-.44.109-.661.163-.328.08-.658.153-.977.251-.172.053-.336.122-.5.18-.359.123-.719.245-1.066.39-.108.046-.21.1-.317.15-.4.177-.792.359-1.172.565-.059.032-.113.07-.171.1-.419.234-.831.478-1.226.745-.038.026-.073.056-.11.081-.409.281-.808.575-1.188.889-.053.043-.1.093-.153.137-.359.3-.709.615-1.041.946-.09.091-.171.191-.26.283-.282.3-.563.592-.824.907-.123.149-.231.31-.35.463-.21.273-.425.542-.618.827-.128.189-.238.389-.358.583-.166.267-.338.528-.489.8-.1.191-.19.392-.287.587-.147.3-.3.586-.429.889-.069.164-.123.336-.188.5-.135.348-.273.695-.385,1.054-.04.124-.065.254-.1.379-.119.411-.233.823-.321,1.245-.018.089-.026.181-.043.271-.089.464-.166.93-.215,1.405-.009.086-.008.175-.016.261-.042.477-.072.957-.072,1.444,0,.016,0,.032,0,.048V420.335a16.885,16.885,0,0,0,16.886,16.886H89.679a16.886,16.886,0,1,0,0-33.771H33.771V309.3l143.714-13.087a16.891,16.891,0,0,0,15.355-16.82V199.7a16.886,16.886,0,0,0-33.772,0v64.271L53.4,273.594,65.142,151.5H310.235V403.463l-106.987-.013c-.542,0-1.077.031-1.606.081a72.946,72.946,0,0,0-67.267,48.426H16.886a16.886,16.886,0,1,0,0,33.771H130.6c.2,1.7.459,3.4.782,5.105a72.933,72.933,0,0,0,57.688,57.7,75.072,75.072,0,0,0,13.984,1.306,73.053,73.053,0,0,0,72.8-64.114l197.042-.024c.2,1.711.458,3.422.781,5.13a73,73,0,0,0,57.715,57.689,76,76,0,0,0,13.958,1.306,73.06,73.06,0,0,0,72.8-64.126H638.87c.2,1.711.459,3.422.782,5.131a73,73,0,0,0,57.715,57.689,75.981,75.981,0,0,0,13.957,1.306,73.22,73.22,0,0,0,72.081-87.344v-.014a71.789,71.789,0,0,0-10.067-25.249H1325a74.05,74.05,0,0,0-10.211,53.625,73,73,0,0,0,57.7,57.689,75.07,75.07,0,0,0,13.983,1.306,73.038,73.038,0,0,0,72.789-64.113H1480c.2,1.7.46,3.4.782,5.105a72.932,72.932,0,0,0,57.689,57.7,75.07,75.07,0,0,0,13.983,1.306,73.038,73.038,0,0,0,72.789-64.113h20.74c.2,1.707.458,3.414.781,5.118a72.984,72.984,0,0,0,57.688,57.689,75.072,75.072,0,0,0,13.984,1.306,73.206,73.206,0,0,0,72.067-87.357,71.806,71.806,0,0,0-10.072-25.263h39.81c.087,0,.173.013.261.013l159.886-.013v18.231a16.886,16.886,0,1,0,33.772,0V437.221h42.663a16.884,16.884,0,0,0,16.885-16.886V16.886A16.884,16.884,0,0,0,2056.825,0ZM192.57,117.725c33.887-23.01,77.327-39.04,117.665-42.656v42.656Zm450.1,334.205h-28.11a72.243,72.243,0,0,0-7.154-14.639h42.415A73.168,73.168,0,0,0,642.666,451.93Zm-411.53,52.623a39.439,39.439,0,1,1-27.888-67.319,42.482,42.482,0,0,1,7.889.752,39.442,39.442,0,0,1,20,66.567Zm342.305-.013a39.444,39.444,0,1,1-55.775-55.789,38.95,38.95,0,0,1,25.542-11.457h4.642a43,43,0,0,1,5.579.679,39.4,39.4,0,0,1,30.79,30.79v.013A39.425,39.425,0,0,1,573.441,504.54ZM719.41,437.973a39.519,39.519,0,1,1-35.763,10.778,39.007,39.007,0,0,1,27.861-11.53A42.515,42.515,0,0,1,719.41,437.973Zm764.376,13.984h-28.1a72.3,72.3,0,0,0-7.22-14.736H1491A73.184,73.184,0,0,0,1483.786,451.957Zm-69.238,52.609a39.444,39.444,0,1,1-27.888-67.332,42.5,42.5,0,0,1,7.889.752,39.437,39.437,0,0,1,20,66.58Zm165.981,0a39.435,39.435,0,1,1-27.888-67.332,42.49,42.49,0,0,1,7.889.752,39.437,39.437,0,0,1,20,66.58Zm165.994-.013a39.439,39.439,0,1,1-27.888-67.319,42.482,42.482,0,0,1,7.889.752,39.442,39.442,0,0,1,20,66.567Zm-96.753-52.6h-28.1a72.3,72.3,0,0,0-7.22-14.736h42.528A73.093,73.093,0,0,0,1649.77,451.957Zm390.169-48.507H411.549V33.771h1628.39Z"/><path class="cls-1" d="M1266.626,451.957H827.281a16.886,16.886,0,1,0,0,33.771h439.345a16.886,16.886,0,1,0,0-33.771Z"/></g></g></svg>