<svg xmlns="http://www.w3.org/2000/svg" viewBox="0 0 265.991 113.892"><defs><style>.cls-1{fill:#1d1d1b;}.cls-2{fill:#ac2a35;}.cls-3{fill:#e30613;}</style></defs><g id="Layer_2" data-name="Layer 2"><g id="Livello_1" data-name="Livello 1"><path class="cls-1" d="M20.02,3.9a21.113,21.113,0,0,1,8.224,1.435,11.5,11.5,0,0,1,5.216,4.13,11.423,11.423,0,0,1,1.819,6.545A11.209,11.209,0,0,1,32.8,23.5a11.557,11.557,0,0,1-6.965,3.78,14.094,14.094,0,0,1,8.75,3.99,11.651,11.651,0,0,1,3.149,8.4,12.006,12.006,0,0,1-2.1,7.105,12.9,12.9,0,0,1-6.021,4.515,25.859,25.859,0,0,1-9.45,1.54H0V3.9Zm-.071,22.33q5.88,0,9.136-2.625a8.872,8.872,0,0,0,3.255-7.315,8.6,8.6,0,0,0-3.255-7.175Q25.83,6.559,19.949,6.558H2.939v19.67Zm0,23.94q7.069,0,10.955-2.8a9.247,9.247,0,0,0,3.886-7.981,9.02,9.02,0,0,0-3.886-7.8q-3.885-2.764-10.955-2.765H2.939v21.35Z"/><path class="cls-1" d="M70.006,3.548a25.17,25.17,0,0,1,9.835,1.924,25.968,25.968,0,0,1,8.086,5.321,24.665,24.665,0,0,1,5.46,7.875,23.693,23.693,0,0,1,1.96,9.59,23.935,23.935,0,0,1-1.96,9.625,24.939,24.939,0,0,1-5.46,7.945,25.615,25.615,0,0,1-8.086,5.355,25.487,25.487,0,0,1-27.72-5.355,25.685,25.685,0,0,1-5.46-7.945,23.547,23.547,0,0,1-2-9.625,23.309,23.309,0,0,1,2-9.59A25.359,25.359,0,0,1,70.006,3.548Zm0,2.66a21.83,21.83,0,0,0-8.645,1.715,22.677,22.677,0,0,0-11.934,11.8,21,21,0,0,0-1.75,8.54,21.424,21.424,0,0,0,1.75,8.645A22.494,22.494,0,0,0,61.4,48.733a22.323,22.323,0,0,0,24.395-4.761,22.682,22.682,0,0,0,4.8-7.069,21.458,21.458,0,0,0,1.75-8.645,21.038,21.038,0,0,0-1.75-8.54,22.824,22.824,0,0,0-4.8-7.035A22.153,22.153,0,0,0,70.006,6.208Z"/><path class="cls-1" d="M139.319,3.9H175.3v2.66H158.779v46.27H155.84V6.558H139.319Z"/><path class="cls-1" d="M179.653,3.9h35.981v2.66H199.113v46.27h-2.939V6.558H179.653Z"/><path class="cls-1" d="M240.65,3.548a25.166,25.166,0,0,1,9.835,1.924,25.956,25.956,0,0,1,8.086,5.321,24.65,24.65,0,0,1,5.46,7.875,23.676,23.676,0,0,1,1.96,9.59,23.918,23.918,0,0,1-1.96,9.625,24.923,24.923,0,0,1-5.46,7.945,25.6,25.6,0,0,1-8.086,5.355,25.484,25.484,0,0,1-27.719-5.355,25.668,25.668,0,0,1-5.46-7.945,23.547,23.547,0,0,1-2-9.625,23.309,23.309,0,0,1,2-9.59A25.357,25.357,0,0,1,240.65,3.548Zm0,2.66a21.821,21.821,0,0,0-8.644,1.715,22.674,22.674,0,0,0-11.935,11.8,21,21,0,0,0-1.75,8.54,21.424,21.424,0,0,0,1.75,8.645,22.492,22.492,0,0,0,11.97,11.83,22.325,22.325,0,0,0,24.395-4.761A22.68,22.68,0,0,0,261.23,36.9a21.458,21.458,0,0,0,1.75-8.645,21.038,21.038,0,0,0-1.75-8.54,22.821,22.821,0,0,0-4.794-7.035A22.158,22.158,0,0,0,240.65,6.208Z"/><path class="cls-1" d="M9.738,93.642a9.7,9.7,0,0,0-5.265,1.192,3.893,3.893,0,0,0-1.845,3.487,4.864,4.864,0,0,0,1.688,3.826,6.6,6.6,0,0,0,4.522,1.484,11.64,11.64,0,0,0,4.028-.652,8.022,8.022,0,0,0,3.083-2.025,9.353,9.353,0,0,0,2.024-3.488l.856,1.261a9.759,9.759,0,0,1-4.074,4.926,12.1,12.1,0,0,1-6.187,1.553,8.754,8.754,0,0,1-4.05-.9A6.765,6.765,0,0,1,1.8,101.854a6.462,6.462,0,0,1-.966-3.488,5.327,5.327,0,0,1,2.339-4.59,10.849,10.849,0,0,1,6.39-1.665h8.865v1.531Zm8.145-3.915A6.49,6.49,0,0,0,16.106,85a7.185,7.185,0,0,0-5.243-1.71,10.252,10.252,0,0,0-4.095.833,18.209,18.209,0,0,0-3.78,2.228l-.9-1.306a22.308,22.308,0,0,1,2.79-1.777,13.542,13.542,0,0,1,2.948-1.148,13.1,13.1,0,0,1,3.307-.405,8.809,8.809,0,0,1,6.345,2.115,7.746,7.746,0,0,1,2.25,5.76l.09,15.57H17.973Z"/><path class="cls-1" d="M28.867,95.711a7.925,7.925,0,0,0,1.98,5.715,7.289,7.289,0,0,0,5.535,2.07A8.517,8.517,0,0,0,43,100.639a10.951,10.951,0,0,0,2.386-7.4h.9a15.286,15.286,0,0,1-1.238,6.457,8.873,8.873,0,0,1-3.554,4.05,11.248,11.248,0,0,1-5.513,1.463,9.9,9.9,0,0,1-4.838-1.1,7.351,7.351,0,0,1-3.06-3.173,10.653,10.653,0,0,1-1.057-4.905V81.761h1.845Zm16.515-13.95h1.845v23.4H45.382Z"/><path class="cls-1" d="M52.776,82.3H65.96v1.53H52.776ZM58,98.5a6.152,6.152,0,0,0,.967,3.78,3.283,3.283,0,0,0,2.768,1.26,7.4,7.4,0,0,0,2.047-.383,6.726,6.726,0,0,0,1.913-1.011l.72,1.349a8.454,8.454,0,0,1-2.318,1.238,8.738,8.738,0,0,1-2.588.472,5.562,5.562,0,0,1-2.857-.7,4.434,4.434,0,0,1-1.822-2.16,9.152,9.152,0,0,1-.63-3.622V76.541H58Z"/><path class="cls-1" d="M80,81.716A11.921,11.921,0,0,1,85.957,83.2a10.615,10.615,0,0,1,4.118,4.14,13.261,13.261,0,0,1,0,12.2,10.752,10.752,0,0,1-4.118,4.162A11.77,11.77,0,0,1,80,105.206a11.647,11.647,0,0,1-5.94-1.508,10.95,10.95,0,0,1-4.117-4.162,13.081,13.081,0,0,1,0-12.2,10.809,10.809,0,0,1,4.117-4.14A11.8,11.8,0,0,1,80,81.716Zm0,1.62a9.589,9.589,0,0,0-5.018,1.306,9.385,9.385,0,0,0-3.442,3.577,10.633,10.633,0,0,0-1.26,5.242,10.765,10.765,0,0,0,1.26,5.266,9.191,9.191,0,0,0,3.442,3.577,10.46,10.46,0,0,0,10.035,0,9.191,9.191,0,0,0,3.442-3.577,10.765,10.765,0,0,0,1.261-5.266,10.633,10.633,0,0,0-1.261-5.242,9.385,9.385,0,0,0-3.442-3.577A9.586,9.586,0,0,0,80,83.336Z"/><path class="cls-1" d="M94.818,82.3H108v1.53H94.818Zm5.219,16.2a6.152,6.152,0,0,0,.968,3.78,3.283,3.283,0,0,0,2.768,1.26,7.4,7.4,0,0,0,2.047-.383,6.726,6.726,0,0,0,1.913-1.011l.72,1.349a8.454,8.454,0,0,1-2.318,1.238,8.738,8.738,0,0,1-2.588.472,5.562,5.562,0,0,1-2.857-.7,4.429,4.429,0,0,1-1.822-2.16,9.152,9.152,0,0,1-.63-3.622V76.541h1.8Z"/><path class="cls-1" d="M113.493,81.761h1.89v23.4h-1.89Zm10.62,1.71a8.613,8.613,0,0,0-4.725,1.261,7.986,7.986,0,0,0-3.016,3.554,13.168,13.168,0,0,0-1.034,5.446l-.99-.045a15.791,15.791,0,0,1,1.17-6.391,9.138,9.138,0,0,1,3.375-4.1,9.6,9.6,0,0,1,5.22-1.485Z"/><path class="cls-1" d="M135.618,93.642a9.7,9.7,0,0,0-5.265,1.192,3.891,3.891,0,0,0-1.845,3.487,4.864,4.864,0,0,0,1.688,3.826,6.6,6.6,0,0,0,4.522,1.484,11.64,11.64,0,0,0,4.028-.652,8.029,8.029,0,0,0,3.083-2.025,9.366,9.366,0,0,0,2.024-3.488l.855,1.261a9.752,9.752,0,0,1-4.073,4.926,12.1,12.1,0,0,1-6.187,1.553,8.754,8.754,0,0,1-4.05-.9,6.765,6.765,0,0,1-2.723-2.452,6.462,6.462,0,0,1-.967-3.488,5.328,5.328,0,0,1,2.34-4.59,10.849,10.849,0,0,1,6.39-1.665H144.3v1.531Zm8.145-3.915A6.49,6.49,0,0,0,141.986,85a7.188,7.188,0,0,0-5.243-1.71,10.252,10.252,0,0,0-4.095.833,18.209,18.209,0,0,0-3.78,2.228l-.9-1.306a22.308,22.308,0,0,1,2.79-1.777,13.554,13.554,0,0,1,2.947-1.148,13.115,13.115,0,0,1,3.308-.405,8.809,8.809,0,0,1,6.345,2.115,7.746,7.746,0,0,1,2.25,5.76l.09,15.57h-1.845Z"/><path class="cls-1" d="M165.354,84.956a9.559,9.559,0,0,0-2.745-1.237,11.831,11.831,0,0,0-3.2-.428,8.112,8.112,0,0,0-4.162.99,3.383,3.383,0,0,0-1.687,3.15,3.231,3.231,0,0,0,.989,2.52,7.833,7.833,0,0,0,2.543,1.486q1.553.584,3.308,1.08a22.113,22.113,0,0,1,3.307,1.215,7.033,7.033,0,0,1,2.542,1.934,5.05,5.05,0,0,1,.991,3.285,5.41,5.41,0,0,1-1.148,3.555,6.636,6.636,0,0,1-3.015,2.048,11.994,11.994,0,0,1-3.982.652,13.271,13.271,0,0,1-4.7-.854,11.129,11.129,0,0,1-3.893-2.431l.856-1.305a10.885,10.885,0,0,0,3.554,2.228,11.691,11.691,0,0,0,4.276.787,9.454,9.454,0,0,0,3.059-.473,5.279,5.279,0,0,0,2.273-1.439,3.754,3.754,0,0,0,.923-2.5,3.425,3.425,0,0,0-.923-2.632A7.234,7.234,0,0,0,162,95.014q-1.552-.608-3.33-1.125a24.438,24.438,0,0,1-3.352-1.238,7.085,7.085,0,0,1-2.566-1.913,4.8,4.8,0,0,1-.99-3.171,5.026,5.026,0,0,1,1.058-3.308,6.317,6.317,0,0,1,2.812-1.913,11.272,11.272,0,0,1,3.825-.63,13.1,13.1,0,0,1,3.646.5,12.915,12.915,0,0,1,3.059,1.306Z"/><path class="cls-1" d="M173.125,81.761h1.89v32.131h-1.89Zm11.835-.045a11.206,11.206,0,0,1,5.827,1.508,10.8,10.8,0,0,1,4,4.162,13.439,13.439,0,0,1,.023,12.15,10.622,10.622,0,0,1-3.983,4.162,11.284,11.284,0,0,1-5.872,1.508,11.124,11.124,0,0,1-5.759-1.485,10.183,10.183,0,0,1-3.915-4.14,12.852,12.852,0,0,1-1.4-6.075,13.054,13.054,0,0,1,1.4-6.165A10.2,10.2,0,0,1,179.2,83.2,11.124,11.124,0,0,1,184.96,81.716Zm-.27,1.62a9.615,9.615,0,0,0-5,1.306,9.145,9.145,0,0,0-3.443,3.6,10.828,10.828,0,0,0-1.237,5.22,10.684,10.684,0,0,0,1.237,5.2,9.346,9.346,0,0,0,3.443,3.6,9.635,9.635,0,0,0,13.455-3.6,10.531,10.531,0,0,0,1.261-5.2,10.672,10.672,0,0,0-1.261-5.22,9.35,9.35,0,0,0-3.443-3.6A9.586,9.586,0,0,0,184.69,83.336Z"/><path class="cls-1" d="M212.315,81.716a11.924,11.924,0,0,1,5.963,1.485,10.606,10.606,0,0,1,4.117,4.14,13.261,13.261,0,0,1,0,12.2,10.742,10.742,0,0,1-4.117,4.162,11.774,11.774,0,0,1-5.963,1.508,11.649,11.649,0,0,1-5.94-1.508,10.95,10.95,0,0,1-4.117-4.162,13.081,13.081,0,0,1,0-12.2,10.809,10.809,0,0,1,4.117-4.14A11.8,11.8,0,0,1,212.315,81.716Zm0,1.62a9.589,9.589,0,0,0-5.018,1.306,9.392,9.392,0,0,0-3.442,3.577,10.633,10.633,0,0,0-1.26,5.242,10.765,10.765,0,0,0,1.26,5.266A9.2,9.2,0,0,0,207.3,102.3a10.46,10.46,0,0,0,10.035,0,9.2,9.2,0,0,0,3.443-3.577,10.765,10.765,0,0,0,1.261-5.266,10.633,10.633,0,0,0-1.261-5.242,9.4,9.4,0,0,0-3.443-3.577A9.586,9.586,0,0,0,212.315,83.336Z"/><path class="cls-1" d="M230.269,81.761h1.891v23.4h-1.891Zm10.62,1.71a8.615,8.615,0,0,0-4.725,1.261,7.978,7.978,0,0,0-3.015,3.554,13.152,13.152,0,0,0-1.034,5.446l-.991-.045a15.791,15.791,0,0,1,1.17-6.391,9.15,9.15,0,0,1,3.375-4.1,9.6,9.6,0,0,1,5.22-1.485Z"/><path class="cls-1" d="M244.417,82.3H257.6v1.53H244.417Zm5.22,16.2a6.145,6.145,0,0,0,.968,3.78,3.28,3.28,0,0,0,2.767,1.26,7.39,7.39,0,0,0,2.047-.383,6.713,6.713,0,0,0,1.913-1.011l.72,1.349a8.449,8.449,0,0,1-2.317,1.238,8.744,8.744,0,0,1-2.588.472,5.566,5.566,0,0,1-2.858-.7,4.439,4.439,0,0,1-1.822-2.16,9.152,9.152,0,0,1-.63-3.622V76.541h1.8Z"/><path class="cls-1" d="M264.037,73.437a1.536,1.536,0,0,1,1.575,1.574,1.548,1.548,0,0,1-.45,1.1,1.486,1.486,0,0,1-1.125.473,1.575,1.575,0,0,1-1.1-2.7A1.551,1.551,0,0,1,264.037,73.437Zm-.946,8.324h1.846v23.4h-1.846Z"/><polygon class="cls-2" points="162.986 91.494 119.336 0 120.376 39.71 162.986 91.494"/><polygon class="cls-3" points="120.376 39.71 119.336 0 89.286 66.689 120.376 39.71"/></g></g></svg>